<?xml version="1.0" encoding="UTF-8" standalone="no"?>
<svg
   xmlns:dc="http://purl.org/dc/elements/1.1/"
   xmlns:cc="http://creativecommons.org/ns#"
   xmlns:rdf="http://www.w3.org/1999/02/22-rdf-syntax-ns#"
   xmlns:svg="http://www.w3.org/2000/svg"
   xmlns="http://www.w3.org/2000/svg"
   id="svg6346"
   version="1.1"
   viewBox="0 0 4.7624999 5.0270835"
   height="19"
   width="18">
  <defs
     id="defs6340">
    <clipPath
       id="clipPath976-4-1"
       clipPathUnits="userSpaceOnUse">
      <path
         id="path978-2-8"
         d="m 97,60 h 32 V 28 H 97 Z" />
    </clipPath>
  </defs>
  <metadata
     id="metadata6343">
    <rdf:RDF>
      <cc:Work
         rdf:about="">
        <dc:format>image/svg+xml</dc:format>
        <dc:type
           rdf:resource="http://purl.org/dc/dcmitype/StillImage" />
        <dc:title></dc:title>
      </cc:Work>
    </rdf:RDF>
  </metadata>
  <g
     transform="translate(0,-291.9729)"
     id="layer1">
    <path
       id="rect6207"
       d="m 1.4523926,293.01427 c -0.47356755,0 -0.85693358,0.38446 -0.85693358,0.85803 v 0.9646 c 0,0.45805 0.35858363,0.83081 0.81079098,0.85473 0.00255,5.6e-4 0.00762,0.002 0.00769,0.002 0.3107054,6e-5 0.5289541,0.23502 0.5482178,0.55042 a 0.0744215,0.0744215 0 0 0 0.084595,0.0692 c 0.3214766,-0.0469 0.5464758,-0.30756 0.5965577,-0.61963 h 0.6668701 c 0.4735676,0 0.8569336,-0.38336 0.8569336,-0.85693 v -0.9646 c 0,-0.47356 -0.3833655,-0.85694 -0.8569336,-0.85694 z m 0,0.14941 h 1.8577881 c 0.3936682,0 0.7086182,0.31495 0.7086182,0.70862 v 0.9646 c 0,0.39367 -0.3149492,0.70862 -0.7086182,0.70862 H 2.5993653 a 0.0744215,0.0744215 0 0 0 -0.074707,0.0703 c -0.013118,0.25793 -0.2140697,0.44665 -0.4614257,0.50976 -0.071135,-0.32181 -0.3049018,-0.58001 -0.649292,-0.58007 -3.389e-4,0 0.035452,0.009 0.035156,0.009 -0.00338,-0.002 -0.00759,-0.005 -0.00769,-0.005 a 0.0744215,0.0744215 0 0 0 -0.027466,-0.007 c -0.3752652,-0.0199 -0.67016609,-0.32571 -0.67016609,-0.70642 v -0.9646 c 0,-0.39367 0.31494929,-0.70862 0.70861819,-0.70862 z m -0.0033,2.39062 c -2.96e-4,-1.6e-4 0.010743,0.008 0.012085,0.009 0.00134,10e-4 0.0017,1.9e-4 -0.0011,-0.002 -0.0014,-0.001 -0.00645,-0.005 -0.00659,-0.005 -5.13e-5,-4e-5 -0.00252,-0.001 -0.00439,-0.002 z"
       style="color:#000000;font-style:normal;font-variant:normal;font-weight:normal;font-stretch:normal;font-size:medium;line-height:normal;font-family:sans-serif;font-variant-ligatures:normal;font-variant-position:normal;font-variant-caps:normal;font-variant-numeric:normal;font-variant-alternates:normal;font-feature-settings:normal;text-indent:0;text-align:start;text-decoration:none;text-decoration-line:none;text-decoration-style:solid;text-decoration-color:#000000;letter-spacing:normal;word-spacing:normal;text-transform:none;writing-mode:lr-tb;direction:ltr;text-orientation:mixed;dominant-baseline:auto;baseline-shift:baseline;text-anchor:start;white-space:normal;shape-padding:0;clip-rule:nonzero;display:inline;overflow:visible;visibility:visible;opacity:1;isolation:auto;mix-blend-mode:normal;color-interpolation:sRGB;color-interpolation-filters:linearRGB;solid-color:#000000;solid-opacity:1;vector-effect:none;fill:#ffffff;fill-opacity:1;fill-rule:nonzero;stroke:none;stroke-width:0.26458332;stroke-linecap:round;stroke-linejoin:round;stroke-miterlimit:4.5;stroke-dasharray:none;stroke-dashoffset:0;stroke-opacity:1;paint-order:fill markers stroke;color-rendering:auto;image-rendering:auto;shape-rendering:auto;text-rendering:auto;enable-background:accumulate" />
    <g
       style="fill:#ffffff;fill-opacity:1;stroke:none;stroke-width:1.77777779;stroke-opacity:1"
       transform="matrix(0.18603516,0,0,-0.18603516,-14.2875,268.01157)"
       id="g6260">
      <path
         d="m 94.987464,-144.22146 c -0.300913,0.37678 -0.759672,0.59945 -1.24188,0.59945 -0.304262,0 -0.591782,-0.0896 -0.837313,-0.24336 h 1.65e-4 v 0.56418 c 0,0.72735 0.591579,1.31894 1.319133,1.31894 0.727157,0 1.318736,-0.59159 1.318736,-1.31894 v -0.82115 c -0.03881,0.005 -0.07838,0.008 -0.118623,0.008 -0.150955,0 -0.301707,-0.0369 -0.440237,-0.107 m 1.424557,-0.90964 c 3.39e-4,0.0104 9.68e-4,0.0209 9.68e-4,0.0314 0,0.27154 -0.110156,0.51767 -0.288295,0.69601 v 1.10256 c 0,1.046 -0.851306,1.89692 -1.896913,1.89692 -1.046206,0 -1.896922,-0.85092 -1.896922,-1.89692 v -1.19203 c 5.13e-4,0.002 9.68e-4,0.002 0.0019,0.003 -0.066,-0.12809 -0.116069,-0.26603 -0.145043,-0.41206 -0.518661,-0.0276 -0.932101,-0.45836 -0.932101,-0.98392 0,-0.54331 0.442017,-0.98532 0.985316,-0.98532 h 4.087055 c 0.480833,0 0.871997,0.39117 0.871997,0.87201 0,0.45225 -0.346232,0.82548 -0.78765,0.86785"
         style="fill:#ffffff;fill-opacity:1;fill-rule:nonzero;stroke:none;stroke-width:2.57767749;stroke-opacity:1"
         id="path4081" />
      <path
         d="m 83.895038,-144.56227 v 6.54088 c 0.716522,-0.70647 2.585245,-2.54879 3.335666,-3.28423 z m 9.98118,7.06704 c -0.715139,-0.69249 -2.710198,-2.62684 -3.647622,-3.56485 -0.861351,-0.86136 -1.367606,-0.86076 -2.258522,0.004 -0.421908,0.40989 -2.824872,2.77897 -3.618444,3.5611 z m -2.896814,-7.59043 h -6.625413 l 3.382968,3.30296 c 0.483581,-0.41147 0.931705,-0.61917 1.376278,-0.61917 0.443972,0 0.885389,0.20711 1.355974,0.61739 l 1.359342,-1.31499 c 0.02284,0.27391 0.09145,0.53462 0.198625,0.77505 l -1.056638,1.02214 c 1.064525,1.05547 2.949022,2.88145 3.496666,3.41154 v -3.01346 c 0.244351,-0.0243 0.477872,-0.0848 0.695232,-0.17657 v 3.21328 c 0,0.58863 -0.478858,1.06749 -1.067486,1.06749 H 84.26768 c -0.588821,0 -1.06768,-0.47886 -1.06768,-1.06749 v -6.84572 c 0,-0.58863 0.478859,-1.06768 1.06768,-1.06768 h 6.483729 c 0.0179,0.2546 0.09833,0.49108 0.227995,0.69523"
         style="fill:#ffffff;fill-opacity:1;fill-rule:nonzero;stroke:none;stroke-width:2.57767749;stroke-opacity:1"
         id="path4085" />
    </g>
  </g>
</svg>
